<svg width="794" height="794" viewBox="0 0 794 794" fill="none" xmlns="http://www.w3.org/2000/svg">
<g clip-path="url(#clip0_7_6)">
<path d="M0 100C0 44.7716 44.7715 0 100 0H694C749.228 0 794 44.7715 794 100V694C794 749.228 749.228 794 694 794H20C8.95431 794 0 785.046 0 774V100Z" fill="#5F5CED"/>
<path d="M18.0744 725.275L81.0331 557.283L124.33 441.655C134.11 411.806 135.944 399.479 152.549 382.873L272.966 262.457L532.339 521.831L411.821 642.349C401.939 652.231 382.991 660.686 353.141 670.466L237.513 713.763L69.5213 776.722C37.8381 787.011 7.785 756.958 18.0744 725.275Z" fill="white"/>
<path d="M26.5909 793.654L210 724L165.168 712.505C120.466 701.043 85.1916 666.742 72.4833 622.378L65.5 598L2.029 769.29C-3.63976 784.589 11.3388 799.447 26.5909 793.654Z" fill="#242424"/>
<path d="M930.874 -30.23L825.23 -135.874L211.637 477.719C211.637 477.719 199.106 529.879 230.993 561.766C262.88 593.652 317.281 583.363 317.281 583.363L930.874 -30.23Z" fill="#E45301"/>
<path d="M1007.69 46.5837L410.904 643.367C314.531 664.354 318.707 581.937 318.707 581.937L930.874 -30.23L1007.69 46.5837Z" fill="#C04500"/>
<path d="M825.128 -135.976L212.961 476.191C212.961 476.191 102.732 476.191 153.161 382.364L748.314 -212.79L825.128 -135.976Z" fill="#F26414"/>
<path d="M319.624 595.283L937.089 -22.1819L922.724 -36.5462L301.287 584.891L317.281 583.261L319.624 595.283Z" fill="#9A3700"/>
<path d="M209.192 494.528L870.972 -167.252L856.506 -181.616L199.717 475.172L211.637 477.617L209.192 494.528Z" fill="#9A3700"/>
<path opacity="0.2" d="M748.314 -212.79C748.314 -212.79 804.04 -130.373 850.189 -83.7144C938.515 5.32435 1007.69 46.5837 1007.69 46.5837L989.86 64.4119C964.493 54.53 899.599 24.8844 834.806 -39.8063C769.606 -105.006 738.84 -168.678 728.551 -193.026L748.314 -212.79V-212.79Z" fill="#4E342E"/>
<path d="M1040.7 43.7312C1034.99 49.4362 1026.94 51.9831 1019 50.6587C1019 50.6587 935.561 25.1899 852.634 -57.7363C769.708 -140.663 742.304 -221.449 742.304 -221.449C740.979 -229.396 743.526 -237.546 749.231 -243.251L836.64 -330.659C840.307 -334.327 845.401 -336.263 850.495 -335.651C852.227 -335.448 853.959 -335.244 855.792 -334.938C862.72 -333.919 868.221 -328.826 870.157 -322.102C870.157 -322.102 910.092 -244.677 975.903 -178.968C1041.71 -113.258 1121.99 -74.9532 1121.99 -74.9532C1128.72 -73.1194 1133.91 -67.7201 1134.93 -60.7926V-60.5888C1135.74 -55.0876 1133.91 -49.5863 1130.04 -45.7151L1040.7 43.7312V43.7312Z" fill="#242424"/>
</g>
<defs>
<clipPath id="clip0_7_6">
<path d="M0 100C0 44.7716 44.7715 0 100 0H694C749.228 0 794 44.7715 794 100V694C794 749.228 749.228 794 694 794H20C8.95431 794 0 785.046 0 774V100Z" fill="white"/>
</clipPath>
</defs>
</svg>
